<svg xmlns="http://www.w3.org/2000/svg" width="13.475" height="16" viewBox="0 0 13.475 16">
    <path fill="#fff" d="M17.186 14.468a8.684 8.684 0 0 1-.859 1.546 7.892 7.892 0 0 1-1.108 1.34 2.153 2.153 0 0 1-1.424.626 3.569 3.569 0 0 1-1.315-.314 3.769 3.769 0 0 0-1.417-.312 3.9 3.9 0 0 0-1.456.312A3.885 3.885 0 0 1 8.348 18a2.021 2.021 0 0 1-1.455-.643 8.285 8.285 0 0 1-1.159-1.387 9.579 9.579 0 0 1-1.225-2.434 8.923 8.923 0 0 1-.514-2.9 5.3 5.3 0 0 1 .7-2.771 4.088 4.088 0 0 1 1.451-1.478 3.914 3.914 0 0 1 1.97-.557 4.615 4.615 0 0 1 1.524.355 4.919 4.919 0 0 0 1.209.355 7.283 7.283 0 0 0 1.341-.419 4.428 4.428 0 0 1 1.82-.321 3.867 3.867 0 0 1 3.031 1.6 3.37 3.37 0 0 0-1.787 3.062A3.375 3.375 0 0 0 16.362 13a3.645 3.645 0 0 0 1.107.726c-.089.258-.184.505-.283.742zM14.1 2.32a3.417 3.417 0 0 1-.875 2.238 2.984 2.984 0 0 1-2.476 1.222 2.487 2.487 0 0 1-.018-.3 3.5 3.5 0 0 1 .929-2.263 3.575 3.575 0 0 1 1.131-.849A3.371 3.371 0 0 1 14.083 2a3.171 3.171 0 0 1 .016.321z" transform="translate(-3.994 -1.999)"/>
</svg>
